<svg xmlns="http://www.w3.org/2000/svg" height="70" width="78">
	<rect x="0" y="0" rx="35" ry="35" width="113" height="70" fill="#343642" />
	<g transform="scale(0.1 0.1) translate(170 70)" fill="#ffffff">
		<polygon fill="#1F72B5" points="107.66,470.9 74.67,100.55 437.33,100.55 404.34,470.76 255.72,512" />
		<polygon fill="#51A3DC" points="256,480.57 376.04,447.29 404.34,130.84 256,130.84" />
		<polygon fill="#EBEBEB" points="138.1,216.32 133.69,173.51 378.31,173.51 375.47,223.15 272.07,268.8 371.2,268.8 360.53,409.6 260.55,436.48 156.87,411.31 150.47,339.91 196.27,339.91 198.83,377.6 258.84,388.84 314.31,371.77 316.87,311.47 146.49,311.47 143.36,266.67 256,217.32" />
		<g>
			<polygon fill="#CECECE" points="143.36,266.67 146.49,311.47 256,311.47 256,217.32" />
			<polygon fill="#CECECE" points="198.83,377.6 196.27,339.91 150.47,339.91 156.87,411.31 256,435.34 256,388.27" />
			<polygon fill="#CECECE" points="133.69,173.51 138.1,216.32 256,217.32 256,173.51" />
		</g>
		<g>
			<polygon points="290.13,17.07 290.13,0 221.87,0 221.87,39.82 268.8,39.82 268.8,52.62 220.44,52.62 220.44,68.27 288.71,68.27 288.71,27.02 240.36,27.02 240.36,17.07" />
			<polygon points="166.4,40.25 166.4,52.62 214.76,52.62 214.76,68.27 146.49,68.27 146.49,27.45 146.49,0 213.33,0 213.33,17.07 166.4,17.07" />
			<polygon points="365.51,17.07 365.51,0 297.24,0 297.24,39.82 344.18,39.82 344.18,52.62 295.82,52.62 295.82,68.27 364.09,68.27 364.09,27.02 315.73,27.02 315.73,17.07" />
		</g>
	</g>
</svg>
