<svg xmlns="http://www.w3.org/2000/svg" height="70" width="78">
	<rect x="0" y="0" rx="35" ry="35" width="113" height="70" fill="#343642" />
	<g transform="scale(3.5 3.5)" fill="#ffffff">
		<path d="M14.37,15.9a1.4,1.4,0,0,0,1.28.79c.54,0,.88-.27.88-.64s-.35-.6-1-.86l-.32-.14c-.94-.4-1.56-.9-1.56-2a1.73,1.73,0,0,1,1.9-1.72,1.93,1.93,0,0,1,1.85,1l-1,.65a.87.87,0,0,0-.84-.55A.56.56,0,0,0,15,13v.05c0,.39.24.55.8.79l.32.14c1.11.47,1.73,1,1.73,2s-.92,1.81-2.15,1.81a2.5,2.5,0,0,1-2.37-1.32ZM9.77,16c.21.37.39.67.84.67s.7-.16.7-.81V11.45h1.3v4.43a1.76,1.76,0,0,1-1.94,2,2,2,0,0,1-1.95-1.19Z" />
	</g>
</svg>
