<?xml version="1.0" encoding="UTF-8"?>
<svg xmlns="http://www.w3.org/2000/svg" xmlns:xlink="http://www.w3.org/1999/xlink" id="Layer_1" height="70" width="78">
	<defs>
		<style>
			.cls-1{fill:url(#linear-gradient);}.cls-1,.cls-2{fill-rule:evenodd;}.cls-3{fill:#4d4d4d;}.cls-2{fill:url(#linear-gradient-2);}
		</style>
		<linearGradient id="linear-gradient" x1="3445.03" y1="-3329.83" x2="3669.48" y2="-3554.29" gradientTransform="translate(-218.03 -301.8) scale(.1 -.1)" gradientUnits="userSpaceOnUse">
			<stop offset="0" stop-color="#000" />
			<stop offset="1" stop-color="#fff" />
		</linearGradient>
		<linearGradient id="linear-gradient-2" x1="3679.64" y1="-3544.12" x2="3455.19" y2="-3319.67" xlink:href="#linear-gradient" />
	</defs>
	<rect x="0" y="0" rx="35" ry="35" width="113" height="70" fill="#343642" />
	<g transform="scale(0.33 0.33) translate(10 65)" fill="#ffffff">
		<path d="M25.57,36.14c0,1.58-.22,2.87-.67,3.86-.45,1-1.36,1.82-2.73,2.47,1.37,.62,2.28,1.44,2.73,2.47,.45,1,.67,2.27,.67,3.81v9.12c0,1.65,.31,2.82,.92,3.5,.62,.72,1.68,1.08,3.19,1.08h4.17c.86,0,1.29,.43,1.29,1.29v1.34c0,.86-.43,1.29-1.29,1.29h-4.17c-3.02,0-5.2-.65-6.54-1.96-1.3-1.3-1.96-3.48-1.96-6.54v-9.12c0-1.54-.31-2.64-.92-3.3-.62-.69-1.68-1.03-3.19-1.03h-4.12c-.86,0-1.29-.43-1.29-1.29v-1.34c0-.86,.43-1.29,1.29-1.29h4.12c1.51,0,2.58-.34,3.19-1.03,.62-.69,.92-1.8,.92-3.35v-9.06c0-3.06,.65-5.24,1.96-6.54,1.34-1.3,3.52-1.96,6.54-1.96h4.17c.86,0,1.29,.43,1.29,1.29v1.34c0,.86-.43,1.29-1.29,1.29h-4.17c-1.51,0-2.58,.36-3.19,1.08-.62,.72-.92,1.89-.92,3.5v9.07Z" />
		<rect x="62.43" y="18.06" width="5.93" height="5.97" rx="1.29" ry="1.29" />
		<path d="M67.07,31.45c.86,0,1.29,.43,1.29,1.29v18.28c0,5.05-1.18,8.7-3.55,10.97-2.33,2.3-5.32,3.45-8.96,3.45-2.71,0-5.29-.51-7.73-1.54-.55-.21-.82-.57-.82-1.08,0-.21,.05-.41,.15-.62l.51-1.24c.21-.55,.57-.82,1.08-.82,.24,0,.43,.03,.57,.1,2.16,.79,4.24,1.18,6.23,1.18,2.51,0,4.48-.79,5.92-2.37,1.44-1.58,2.16-4.26,2.16-8.03v-15.55h-14.37c-.86,0-1.29-.43-1.29-1.29v-1.45c0-.86,.43-1.29,1.29-1.29h17.51Z" />
		<path d="M106.6,34.38c-.21,.76-.72,1.06-1.54,.92-1.96-.31-3.5-.46-4.63-.46-1.72,0-3.16,.29-4.33,.88-1.17,.55-1.75,1.34-1.75,2.37,0,.89,.46,1.68,1.39,2.37,.93,.69,2.21,1.13,3.86,1.34,3.06,.38,5.32,1.27,6.8,2.68,1.51,1.41,2.27,3.14,2.27,5.2,0,2.4-.94,4.34-2.83,5.82-1.89,1.48-4.55,2.21-7.98,2.21-2.3,0-4.62-.19-6.95-.57-.72-.1-1.08-.48-1.08-1.13,0-.17,.02-.31,.05-.41l.31-1.34c.14-.79,.64-1.13,1.49-1.03,1.99,.34,4.05,.51,6.18,.51,2.06,0,3.64-.38,4.74-1.13,1.13-.76,1.7-1.73,1.7-2.94,0-1-.43-1.85-1.29-2.57-.82-.72-2.13-1.17-3.91-1.34-2.85-.27-5.08-1.12-6.7-2.52-1.61-1.44-2.42-3.16-2.42-5.15,0-2.09,.88-3.81,2.63-5.15,1.75-1.34,4.19-2.01,7.31-2.01,2.03,0,4.05,.19,6.08,.57,.69,.1,1.03,.48,1.03,1.13,0,.17-.02,.31-.05,.41l-.36,1.35Z" />
		<path d="M171.64,32.94c0-.76,.39-1.22,1.18-1.39,2.75-.41,5.66-.62,8.75-.62,3.85,0,6.63,.81,8.34,2.42,1.72,1.58,2.57,4.24,2.57,7.98v14.57c0,.86-.43,1.29-1.29,1.29h-1.8c-.86,0-1.29-.43-1.29-1.29v-14.57c0-2.4-.5-4.09-1.49-5.05-1-.96-2.68-1.44-5.05-1.44-1.65,0-3.5,.07-5.56,.21v20.86c0,.86-.43,1.29-1.29,1.29h-1.8c-.86,0-1.29-.43-1.29-1.29v-22.97Z" />
		<path d="M214.43,27.07c0-1.61-.31-2.78-.92-3.5-.62-.72-1.68-1.08-3.19-1.08h-4.17c-.86,0-1.29-.43-1.29-1.29v-1.34c0-.86,.43-1.29,1.29-1.29h4.17c3.02,0,5.18,.65,6.49,1.96,1.34,1.3,2.01,3.48,2.01,6.54v9.06c0,1.54,.31,2.66,.92,3.35,.62,.69,1.68,1.03,3.19,1.03h4.12c.86,0,1.29,.43,1.29,1.29v1.34c0,.86-.43,1.29-1.29,1.29h-4.12c-1.51,0-2.58,.34-3.19,1.03-.62,.65-.92,1.75-.92,3.3v9.12c0,3.06-.65,5.24-1.96,6.54-1.3,1.3-3.48,1.96-6.54,1.96h-4.17c-.86,0-1.29-.43-1.29-1.29v-1.34c0-.86,.43-1.29,1.29-1.29h4.17c1.51,0,2.58-.36,3.19-1.08,.62-.69,.92-1.85,.92-3.5v-9.12c0-1.54,.22-2.82,.67-3.81,.45-1.03,1.36-1.85,2.73-2.47-1.37-.65-2.28-1.48-2.73-2.47-.45-1-.67-2.28-.67-3.86v-9.07Z" />
		<path class="cls-1" d="M139.44,51.37c7.08,9.65,14.01-2.69,14-10.12-.01-8.78-8.91-13.68-14-13.68-8.18,0-15.96,6.76-15.96,16,0,10.28,8.93,15.97,15.96,15.97-1.59-.23-6.9-1.37-6.97-13.59-.05-8.27,2.7-11.57,6.96-10.12,.1,.04,4.7,1.85,4.7,7.79s-4.68,7.74-4.68,7.74h0Z" />
		<path class="cls-2" d="M139.44,35.84c-4.68-1.61-10.41,2.24-10.41,9.96,0,12.61,9.34,13.75,10.47,13.75,8.18,0,15.96-6.76,15.96-16,0-10.28-8.93-15.97-15.96-15.97,1.95-.27,10.51,2.11,10.51,13.8,0,7.63-6.39,11.78-10.55,10-.1-.04-4.7-1.85-4.7-7.79s4.67-7.76,4.67-7.76h0Z" />
	</g>
</svg>
